# xmcd
#
# Track frame offsets: 
#        150
#        12810
#        30202
#        43330
#        57392
#        71942
#        85212
#        98207
#        107837
#        126825
#        137615
#        150347
#
# Disc length: 2179 seconds
#
# Revision: 3
# Processed by: cddbd v1.5.1PL2 Copyright (c) Steve Scherf et al.
# Submitted via: ExactAudioCopy v0.95b3
#
DISCID=9a08810c
DTITLE=Lee Kernaghan - The Outback Club
DYEAR=1992
DGENRE=Country
TTITLE0=Boys From The Bush
TTITLE1=High Country
TTITLE2=She Waits By the Sliprails (The Bush Girl)
TTITLE3=Walkin' Out West
TTITLE4=Country Girls
TTITLE5=Country's Really Big These Days
TTITLE6=You're the Reason I Never Saw Hank Jr Play
TTITLE7=Rejected
TTITLE8=Scots of the Riverina
TTITLE9=You Don't Have To Go To Memphis
TTITLE10=Searchin' For Another You
TTITLE11=Tallarook
EXTD=
EXTT0=
EXTT1=
EXTT2=
EXTT3=
EXTT4=
EXTT5=
EXTT6=
EXTT7=
EXTT8=
EXTT9=
EXTT10=
EXTT11=
PLAYORDER=
